<svg width="22" height="22" viewBox="0 0 22 22" fill="none" xmlns="http://www.w3.org/2000/svg">
<path d="M12.9513 13.6829C13.7942 16.1801 14.3609 18.7622 14.6412 21.3829C13.4707 21.7923 12.2395 22.0009 10.9995 22C8.818 22.0036 6.68518 21.3555 4.87465 20.1388C5.7184 18.5757 6.86823 17.1985 8.25562 16.0892C9.64302 14.9799 11.2396 14.1611 12.9502 13.6818L12.9513 13.6829ZM21.5318 14.1922C20.7465 16.7732 19.0417 18.9767 16.7404 20.3852C16.4313 17.9681 15.8935 15.5858 15.1341 13.2704C17.31 13.0457 19.5078 13.3623 21.5318 14.1922ZM11.159 9.33349C11.525 10.08 11.8661 10.8401 12.1822 11.6138C8.37157 12.7299 5.1377 15.2714 3.15283 18.7099C2.03735 17.567 1.18194 16.1967 0.645133 14.6927C0.108323 13.1887 -0.0972251 11.5865 0.0425488 9.99569C3.72054 10.7745 7.60096 10.5479 11.159 9.33349ZM19.4931 4.0084C21.326 6.24655 22.2105 9.11278 21.9575 11.9944C19.5372 11.0839 16.9277 10.7927 14.3661 11.1474C14.0123 10.254 13.6251 9.37407 13.2054 8.5096C15.5631 7.41324 17.6954 5.88672 19.4931 4.0084ZM5.79112 1.309C7.43585 3.17307 8.88472 5.20111 10.1149 7.3612C6.99233 8.35549 3.66439 8.51852 0.459527 7.8342C1.30334 5.03958 3.2205 2.69321 5.79112 1.309ZM10.9995 3.14841e-06C13.6268 3.14841e-06 16.0395 0.920703 17.9308 2.4574C16.2939 4.17553 14.3448 5.56648 12.1877 6.556C10.9736 4.38189 9.55129 2.33069 7.94092 0.431203C8.9351 0.144384 9.96476 -0.00077957 10.9995 3.14841e-06Z" fill="white"/>
</svg>
