<svg width="28" height="31" viewBox="0 0 28 31" fill="none" xmlns="http://www.w3.org/2000/svg">
<g clip-path="url(#clip0_38_99)">
<path fill-rule="evenodd" clip-rule="evenodd" d="M14.7636 5.43124C14.7636 4.74744 14.6031 4.07303 14.2948 3.46142C14.0283 2.93274 13.8718 2.35628 13.8346 1.76635L13.7455 0.352051L13.6564 1.7663C13.6191 2.35623 13.4627 2.93272 13.1961 3.4614C12.8878 4.07303 12.7273 4.74745 12.7273 5.43127V25.5683C12.7273 26.2521 12.8878 26.9265 13.1961 27.5382C13.4627 28.0668 13.6191 28.6433 13.6564 29.2333L13.7455 30.6475L13.8346 29.2332C13.8718 28.6433 14.0283 28.0668 14.2948 27.5381C14.6031 26.9265 14.7636 26.2521 14.7636 25.5683V5.43124ZM9.20386 5.48112C9.51224 6.09273 9.67273 6.76718 9.67273 7.45097V23.5486C9.67273 24.2324 9.51224 24.9068 9.20386 25.5185C8.93735 26.0471 8.78086 26.6236 8.74364 27.2135L8.65455 28.6278L8.56546 27.2135C8.52823 26.6236 8.37175 26.0471 8.10524 25.5185C7.79686 24.9068 7.63636 24.2324 7.63636 23.5486V7.45097C7.63636 6.76718 7.79686 6.09273 8.10524 5.48112C8.37175 4.95243 8.52823 4.37596 8.56546 3.78603L8.65455 2.37175L8.74364 3.78603C8.78086 4.37596 8.93735 4.95243 9.20386 5.48112ZM7.12727 9.47067C7.12727 8.78681 6.96678 8.11242 6.6584 7.50083C6.39189 6.97211 6.23539 6.39565 6.19821 5.80571L6.10909 4.39144L6.01997 5.80571C5.98279 6.39565 5.82628 6.97211 5.55976 7.50083C5.25143 8.11242 5.09091 8.78681 5.09091 9.47067V21.5289C5.09091 22.2127 5.25143 22.8871 5.55976 23.4987C5.82628 24.0274 5.98279 24.6039 6.01997 25.1938L6.10909 26.6081L6.19821 25.1938C6.23539 24.6039 6.39189 24.0274 6.6584 23.4987C6.96678 22.8871 7.12727 22.2127 7.12727 21.5289V9.47067ZM4.11296 11.5402C4.4213 12.1518 4.58182 12.8262 4.58182 13.5101V17.4895C4.58182 18.1733 4.4213 18.8477 4.11296 19.4593C3.84644 19.9881 3.68994 20.5645 3.65276 21.1544L3.56364 22.5687L3.47451 21.1544C3.43734 20.5645 3.28083 19.9881 3.01431 19.4593C2.70598 18.8477 2.54545 18.1733 2.54545 17.4895V13.5101C2.54545 12.8262 2.70598 12.1518 3.01431 11.5402C3.28083 11.0115 3.43734 10.435 3.47451 9.84513L3.56364 8.43084L3.65276 9.84513C3.68994 10.435 3.84644 11.0115 4.11296 11.5402ZM2.03626 15.4998L2.03636 15.5298V15.4698L2.03626 15.4998ZM0 15.5298L0.000102723 15.4998C0.00472134 16.1733 0.165026 16.837 0.468854 17.4396C0.735376 17.9684 0.891883 18.5448 0.929059 19.1347L1.01818 20.549L1.1073 19.1347C1.14448 18.5448 1.30099 17.9684 1.56751 17.4396C1.87134 16.837 2.03164 16.1733 2.03626 15.4998C2.03164 14.8262 1.87134 14.1625 1.56751 13.5599C1.30099 13.0312 1.14448 12.4548 1.1073 11.8648L1.01818 10.4505L0.929059 11.8648C0.891883 12.4548 0.735376 13.0312 0.468854 13.5599C0.165026 14.1625 0.00472135 14.8262 0.000102723 15.4998L0 15.4698V15.5298ZM11.7493 3.46141C12.0577 4.07303 12.2182 4.74745 12.2182 5.43125V25.5683C12.2182 26.2521 12.0577 26.9265 11.7493 27.5381C11.4828 28.0668 11.3263 28.6433 11.2891 29.2332L11.2 30.6475L11.1109 29.2332C11.0737 28.6433 10.9172 28.0668 10.6507 27.5381C10.3423 26.9265 10.1818 26.2521 10.1818 25.5683V5.43125C10.1818 4.74745 10.3423 4.07303 10.6507 3.46141C10.9172 2.93273 11.0737 2.35625 11.1109 1.76632L11.2 0.352051L11.2891 1.76632C11.3263 2.35625 11.4828 2.93273 11.7493 3.46141ZM16.8402 3.46141C17.1486 4.07303 17.3091 4.74745 17.3091 5.43125V25.5683C17.3091 26.2521 17.1486 26.9265 16.8402 27.5381C16.5737 28.0668 16.4172 28.6433 16.38 29.2332L16.2909 30.6475L16.2018 29.2332C16.1646 28.6433 16.0081 28.0668 15.7416 27.5381C15.4332 26.9265 15.2727 26.2521 15.2727 25.5683V5.43125C15.2727 4.74745 15.4332 4.07303 15.7416 3.46141C16.0081 2.93273 16.1646 2.35625 16.2018 1.76632L16.2909 0.352051L16.38 1.76632C16.4172 2.35625 16.5737 2.93273 16.8402 3.46141ZM19.8545 7.45097C19.8545 6.76718 19.6941 6.09273 19.3857 5.48112C19.1192 4.95243 18.9627 4.37596 18.9255 3.78603L18.8364 2.37175L18.7473 3.78603C18.71 4.37596 18.5536 4.95243 18.2871 5.48112C17.9787 6.09273 17.8182 6.76718 17.8182 7.45097V23.5486C17.8182 24.2324 17.9787 24.9068 18.2871 25.5185C18.5536 26.0471 18.71 26.6236 18.7473 27.2135L18.8364 28.6278L18.9255 27.2135C18.9627 26.6236 19.1192 26.0471 19.3857 25.5185C19.6941 24.9068 19.8545 24.2324 19.8545 23.5486V7.45097ZM21.9311 7.50083C22.2395 8.11242 22.4 8.78681 22.4 9.47067V21.5289C22.4 22.2127 22.2395 22.8871 21.9311 23.4987C21.6646 24.0274 21.5081 24.6039 21.4709 25.1938L21.3818 26.6081L21.2927 25.1938C21.2555 24.6039 21.099 24.0274 20.8325 23.4987C20.5242 22.8871 20.3636 22.2127 20.3636 21.5289V9.47067C20.3636 8.78681 20.5242 8.11242 20.8325 7.50083C21.099 6.97211 21.2555 6.39565 21.2927 5.80571L21.3818 4.39144L21.4709 5.80571C21.5081 6.39565 21.6646 6.97211 21.9311 7.50083ZM24.9455 13.5101C24.9455 12.8262 24.785 12.1518 24.4766 11.5402C24.2101 11.0115 24.0536 10.435 24.0164 9.84513L23.9273 8.43084L23.8382 9.84513C23.801 10.435 23.6445 11.0115 23.378 11.5402C23.0696 12.1518 22.9091 12.8262 22.9091 13.5101V17.4895C22.9091 18.1733 23.0696 18.8477 23.378 19.4593C23.6445 19.9881 23.801 20.5645 23.8382 21.1544L23.9273 22.5687L24.0164 21.1544C24.0536 20.5645 24.2101 19.9881 24.4766 19.4593C24.785 18.8477 24.9455 18.1733 24.9455 17.4895V13.5101ZM27.4908 15.4998C27.4908 15.5098 27.4909 15.5197 27.4909 15.5298V15.4698C27.4909 15.4798 27.4908 15.4898 27.4908 15.4998ZM25.4547 15.4998C25.4593 16.1733 25.6196 16.837 25.9234 17.4396C26.1899 17.9684 26.3464 18.5448 26.3836 19.1347L26.4727 20.549L26.5618 19.1347C26.599 18.5448 26.7555 17.9684 27.022 17.4396C27.3259 16.837 27.4862 16.1733 27.4908 15.4998C27.4862 14.8262 27.3259 14.1625 27.022 13.5599C26.7555 13.0312 26.599 12.4548 26.5618 11.8648L26.4727 10.4505L26.3836 11.8648C26.3464 12.4548 26.1899 13.0312 25.9234 13.5599C25.6196 14.1625 25.4593 14.8262 25.4547 15.4998ZM25.4547 15.4998C25.4546 15.4898 25.4545 15.4798 25.4545 15.4698V15.5298C25.4545 15.5197 25.4546 15.5098 25.4547 15.4998Z" fill="white" fill-opacity="0.5"/>
</g>
<defs>
<clipPath id="clip0_38_99">
<rect width="28" height="31" fill="white"/>
</clipPath>
</defs>
</svg>
