<svg width="30" height="30" viewBox="0 0 30 30" fill="none" xmlns="http://www.w3.org/2000/svg">
<path d="M3.96008 19.9139C4.22186 19.9139 4.43408 17.7139 4.43408 14.9999C4.43408 12.286 4.22186 10.0859 3.96008 10.0859C3.6983 10.0859 3.48608 12.286 3.48608 14.9999C3.48608 17.7139 3.6983 19.9139 3.96008 19.9139Z" fill="white" fill-opacity="0.5"/>
<path d="M5.21989 20.46C5.5115 20.46 5.74789 18.0155 5.74789 15C5.74789 11.9846 5.5115 9.54004 5.21989 9.54004C4.92829 9.54004 4.69189 11.9846 4.69189 15C4.69189 18.0155 4.92829 20.46 5.21989 20.46Z" fill="white" fill-opacity="0.5"/>
<path d="M6.62399 21.0722C6.94541 21.0722 7.20599 18.3537 7.20599 15.0002C7.20599 11.6468 6.94541 8.92822 6.62399 8.92822C6.30257 8.92822 6.04199 11.6468 6.04199 15.0002C6.04199 18.3537 6.30257 21.0722 6.62399 21.0722Z" fill="white" fill-opacity="0.5"/>
<path d="M8.17803 21.7439C8.53593 21.7439 8.82603 18.7245 8.82603 14.9999C8.82603 11.2752 8.53593 8.25586 8.17803 8.25586C7.82013 8.25586 7.53003 11.2752 7.53003 14.9999C7.53003 18.7245 7.82013 21.7439 8.17803 21.7439Z" fill="white" fill-opacity="0.5"/>
<path d="M9.90604 22.4939C10.3037 22.4939 10.626 19.1387 10.626 14.9999C10.626 10.8611 10.3037 7.50586 9.90604 7.50586C9.50842 7.50586 9.18604 10.8611 9.18604 14.9999C9.18604 19.1387 9.50842 22.4939 9.90604 22.4939Z" fill="white" fill-opacity="0.5"/>
<path d="M11.8319 23.3279C12.2726 23.3279 12.6299 19.5993 12.6299 14.9999C12.6299 10.4005 12.2726 6.67188 11.8319 6.67188C11.3912 6.67188 11.0339 10.4005 11.0339 14.9999C11.0339 19.5993 11.3912 23.3279 11.8319 23.3279Z" fill="white" fill-opacity="0.5"/>
<path d="M13.9681 24.252C14.4585 24.252 14.8561 20.1098 14.8561 15C14.8561 9.89033 14.4585 5.74805 13.9681 5.74805C13.4776 5.74805 13.0801 9.89033 13.0801 15C13.0801 20.1098 13.4776 24.252 13.9681 24.252Z" fill="white" fill-opacity="0.5"/>
<path d="M16.3379 25.2782C16.8847 25.2782 17.3279 20.6765 17.3279 15.0002C17.3279 9.32381 16.8847 4.72217 16.3379 4.72217C15.7911 4.72217 15.3479 9.32381 15.3479 15.0002C15.3479 20.6765 15.7911 25.2782 16.3379 25.2782Z" fill="white" fill-opacity="0.5"/>
<path d="M18.972 26.4242C19.5784 26.4242 20.07 21.3095 20.07 15.0002C20.07 8.69087 19.5784 3.57617 18.972 3.57617C18.3656 3.57617 17.874 8.69087 17.874 15.0002C17.874 21.3095 18.3656 26.4242 18.972 26.4242Z" fill="white" fill-opacity="0.5"/>
<path d="M21.8999 27.6901C22.5725 27.6901 23.1179 22.0085 23.1179 15.0001C23.1179 7.99158 22.5725 2.31006 21.8999 2.31006C21.2272 2.31006 20.6819 7.99158 20.6819 15.0001C20.6819 22.0085 21.2272 27.6901 21.8999 27.6901Z" fill="white" fill-opacity="0.5"/>
<path d="M25.1519 29.0999C25.9008 29.0999 26.5079 22.7871 26.5079 14.9999C26.5079 7.21268 25.9008 0.899902 25.1519 0.899902C24.403 0.899902 23.7959 7.21268 23.7959 14.9999C23.7959 22.7871 24.403 29.0999 25.1519 29.0999Z" fill="white" fill-opacity="0.5"/>
</svg>
