<svg width="30" height="30" viewBox="0 0 30 30" fill="none" xmlns="http://www.w3.org/2000/svg">
<path d="M16.5186 24.0835C16.5455 21.33 15.8474 19.0908 14.9594 19.0821C14.0714 19.0734 13.3296 21.2986 13.3028 24.0521C13.2758 26.8057 13.9739 29.0449 14.8619 29.0536C15.75 29.0623 16.4917 26.8371 16.5186 24.0835Z" fill="white" fill-opacity="0.5"/>
<path d="M11.3681 23.4582C12.8796 21.1563 13.5031 18.8952 12.7607 18.4077C12.0184 17.9203 10.1913 19.3912 8.67991 21.693C7.16845 23.9948 6.54499 26.2559 7.28731 26.7434C8.02969 27.2309 9.85669 25.76 11.3681 23.4582Z" fill="white" fill-opacity="0.5"/>
<path d="M7.36747 20.156C9.88351 19.0368 11.6305 17.4718 11.2696 16.6604C10.9087 15.8489 8.57647 16.0984 6.06043 17.2176C3.54442 18.3367 1.79738 19.9017 2.15831 20.7132C2.51923 21.5246 4.85146 21.2751 7.36747 20.156Z" fill="white" fill-opacity="0.5"/>
<path d="M10.9676 14.3847C11.1027 13.5069 9.00586 12.4558 6.28426 12.0369C3.56259 11.618 1.24674 11.99 1.11165 12.8677C0.976551 13.7454 3.07336 14.7965 5.79501 15.2154C8.51662 15.6344 10.8325 15.2624 10.9676 14.3847Z" fill="white" fill-opacity="0.5"/>
<path d="M11.9448 12.2937C12.5329 11.6283 11.337 9.61057 9.27367 7.78699C7.21033 5.96342 5.0609 5.02456 4.47279 5.69C3.88468 6.35545 5.0806 8.37319 7.14397 10.1968C9.20731 12.0203 11.3567 12.9592 11.9448 12.2937Z" fill="white" fill-opacity="0.5"/>
<path d="M13.8909 11.0716C14.7454 10.8298 14.8303 8.48573 14.0805 5.83609C13.3308 3.18644 12.0302 1.2345 11.1757 1.4763C10.3212 1.71811 10.2363 4.06209 10.986 6.71177C11.7358 9.36137 13.0363 11.3134 13.8909 11.0716Z" fill="white" fill-opacity="0.5"/>
<path d="M19.1751 6.79417C19.977 4.15981 19.9383 1.8146 19.0887 1.55599C18.2391 1.29738 16.9004 3.2233 16.0985 5.85765C15.2966 8.49199 15.3353 10.8372 16.1849 11.0958C17.0345 11.3544 18.3732 9.42853 19.1751 6.79417Z" fill="white" fill-opacity="0.5"/>
<path d="M22.9509 10.3537C25.0496 8.57078 26.2847 6.5768 25.7097 5.90002C25.1347 5.22322 22.9673 6.1199 20.8688 7.90274C18.7701 9.68564 17.535 11.6796 18.11 12.3564C18.685 13.0332 20.8524 12.1366 22.9509 10.3537Z" fill="white" fill-opacity="0.5"/>
<path d="M24.1994 15.391C26.9288 15.0259 29.0459 14.0163 28.9282 13.1361C28.8104 12.2559 26.5024 11.8383 23.773 12.2034C21.0436 12.5686 18.9265 13.5781 19.0442 14.4584C19.162 15.3386 21.47 15.7562 24.1994 15.391Z" fill="white" fill-opacity="0.5"/>
<path d="M27.7202 20.9648C28.097 20.1606 26.3812 18.5615 23.8877 17.3929C21.3943 16.2243 19.0674 15.929 18.6906 16.7331C18.3137 17.5373 20.0295 19.1364 22.523 20.305C25.0164 21.4735 27.3433 21.7689 27.7202 20.9648Z" fill="white" fill-opacity="0.5"/>
<path d="M22.4752 26.8978C23.227 26.4251 22.6483 24.1521 21.1825 21.8209C19.7168 19.4897 17.9191 17.9832 17.1673 18.4559C16.4155 18.9286 16.9942 21.2016 18.46 23.5328C19.9257 25.864 21.7234 27.3706 22.4752 26.8978Z" fill="white" fill-opacity="0.5"/>
</svg>
