<svg width="28" height="28" viewBox="0 0 28 28" fill="none" xmlns="http://www.w3.org/2000/svg">
<path fill-rule="evenodd" clip-rule="evenodd" d="M14 0C21.732 0 28 6.26799 28 14C28 21.732 21.732 28 14 28C6.268 28 0 21.732 0 14C0 6.26799 6.268 0 14 0ZM27.4626 14C27.4626 6.56479 21.4352 0.537321 14 0.537321C13.4002 0.537321 12.8097 0.576538 12.2307 0.652547C12.6048 0.619839 12.9834 0.603142 13.3659 0.603142C20.4706 0.603142 26.2302 6.36266 26.2302 13.4674C26.2302 20.572 20.4706 26.3316 13.3659 26.3316C6.63966 26.3316 1.1191 21.1694 0.550052 14.5906C0.859178 21.7518 6.76265 27.4626 14 27.4626C21.4352 27.4626 27.4626 21.4352 27.4626 14ZM25.6928 13.4674C25.6928 6.6594 20.1739 1.14047 13.3659 1.14047C12.8132 1.14047 12.2688 1.17686 11.7353 1.24736C12.0638 1.21972 12.3962 1.20562 12.7319 1.20562C19.2093 1.20562 24.4603 6.45665 24.4603 12.9341C24.4603 19.4115 19.2093 24.6625 12.7319 24.6625C6.60726 24.6625 1.57912 19.968 1.04952 13.981C1.31879 20.5508 6.73003 25.7943 13.3659 25.7943C20.1739 25.7943 25.6928 20.2753 25.6928 13.4674ZM12.7319 1.74295C18.9125 1.74295 23.923 6.75339 23.923 12.9341C23.923 19.1147 18.9125 24.1252 12.7319 24.1252C6.6944 24.1252 1.77352 19.3442 1.54877 13.3617C2.034 18.7615 6.57172 22.9934 12.0979 22.9934C17.9476 22.9934 22.6899 18.2512 22.6899 12.4014C22.6899 6.55161 17.9476 1.80943 12.0979 1.80943C11.7952 1.80943 11.4956 1.82213 11.1994 1.847C11.7004 1.77839 12.212 1.74295 12.7319 1.74295ZM22.1525 12.4014C22.1525 6.84841 17.6509 2.34676 12.0979 2.34676C11.6287 2.34676 11.167 2.37889 10.7149 2.44108C10.9618 2.42176 11.2113 2.41192 11.4631 2.41192C16.6857 2.41192 20.9194 6.6456 20.9194 11.8682C20.9194 17.0907 16.6857 21.3244 11.4631 21.3244C6.54753 21.3244 2.50797 17.5737 2.05009 12.7781C2.24818 18.1566 6.67092 22.4561 12.0979 22.4561C17.6509 22.4561 22.1525 17.9545 22.1525 12.4014ZM11.4631 2.94924C16.3889 2.94924 20.382 6.9424 20.382 11.8682C20.382 16.7939 16.3889 20.7871 11.4631 20.7871C6.63435 20.7871 2.70188 16.9497 2.54882 12.1582C2.96222 16.367 6.51162 19.6553 10.829 19.6553C15.4244 19.6553 19.1495 15.9301 19.1495 11.3348C19.1495 6.73959 15.4244 3.01439 10.829 3.01439C10.6183 3.01439 10.4094 3.02222 10.2026 3.03762C10.6144 2.97937 11.0352 2.94924 11.4631 2.94924ZM18.6122 11.3348C18.6122 7.03632 15.1276 3.55172 10.829 3.55172C10.4367 3.55172 10.0511 3.58075 9.67431 3.63679C9.84629 3.62447 10.0199 3.6182 10.1951 3.6182C14.1627 3.6182 17.3791 6.83461 17.3791 10.8022C17.3791 14.7699 14.1627 17.9862 10.1951 17.9862C6.47715 17.9862 3.41891 15.162 3.04862 11.5419C3.1584 15.7447 6.5998 19.118 10.829 19.118C15.1276 19.118 18.6122 15.6334 18.6122 11.3348ZM10.1951 4.15553C13.8659 4.15553 16.8417 7.13134 16.8417 10.8022C16.8417 14.4731 13.8659 17.4489 10.1951 17.4489C6.57088 17.4489 3.62419 14.5484 3.54977 10.9421C3.88456 13.9656 6.44817 16.3172 9.56102 16.3172C12.9014 16.3172 15.6093 13.6093 15.6093 10.2689C15.6093 6.9286 12.9014 4.22068 9.56102 4.22068C9.43325 4.22068 9.30644 4.22464 9.18067 4.23245C9.51138 4.1818 9.85014 4.15553 10.1951 4.15553ZM15.072 10.2689C15.072 7.22533 12.6046 4.75801 9.56102 4.75801C9.25536 4.75801 8.95554 4.78289 8.66341 4.83074C8.75046 4.82615 8.83807 4.82383 8.92629 4.82383C11.6393 4.82383 13.8387 7.02321 13.8387 9.73631C13.8387 12.4494 11.6393 14.6488 8.92629 14.6488C6.4176 14.6488 4.34813 12.7683 4.05052 10.3401C4.08862 13.3509 6.54116 15.7799 9.56102 15.7799C12.6046 15.7799 15.072 13.3126 15.072 10.2689ZM8.92629 5.36115C11.3426 5.36115 13.3014 7.31994 13.3014 9.73631C13.3014 12.1527 11.3426 14.1115 8.92629 14.1115C6.50993 14.1115 4.5511 12.1527 4.5511 9.73631C4.5511 9.73054 4.55111 9.72471 4.55113 9.71894C4.80271 11.5603 6.38178 12.9791 8.29225 12.9791C10.3777 12.9791 12.0683 11.2885 12.0683 9.20306C12.0683 7.11754 10.3777 5.42698 8.29225 5.42698C8.24508 5.42698 8.19812 5.42784 8.15136 5.42956C8.40285 5.38461 8.66183 5.36115 8.92629 5.36115ZM11.5309 9.20306C11.5309 7.41435 10.081 5.9643 8.29225 5.9643C6.50354 5.9643 5.05351 7.41435 5.05351 9.20306C5.05351 10.9917 6.50354 12.4417 8.29225 12.4417C10.081 12.4417 11.5309 10.9917 11.5309 9.20306Z" fill="white" fill-opacity="0.5"/>
</svg>
